<svg xmlns="http://www.w3.org/2000/svg" version="1.1" xmlns:xlink="http://www.w3.org/1999/xlink" xmlns:svgjs="http://svgjs.dev/svgjs" width="1500" height="454" viewBox="0 0 1500 454"><g transform="matrix(1,0,0,1,-0.9090909090909918,3.6304743456082065)"><svg viewBox="0 0 396 120" data-background-color="#000000" preserveAspectRatio="xMidYMid meet" height="454" width="1500" xmlns="http://www.w3.org/2000/svg" xmlns:xlink="http://www.w3.org/1999/xlink"><g id="tight-bounds" transform="matrix(1,0,0,1,0.2400000000000091,0.2315470079953741)"><svg viewBox="0 0 395.52 119.53690598400922" height="119.53690598400922" width="395.52"><g><svg viewBox="0 0 590.1332846500857 178.35433597606152" height="119.53690598400922" width="395.52"><g transform="matrix(1,0,0,1,0,24.649550051684344)"><svg viewBox="0 0 395.52 129.05523587269283" height="129.05523587269283" width="395.52"><g id="textblocktransform"><svg viewBox="0 0 395.52 129.05523587269283" height="129.05523587269283" width="395.52" id="textblock"><g><svg viewBox="0 0 395.52 81.67424274973148" height="81.67424274973148" width="395.52"><g transform="matrix(1,0,0,1,0,0)"><svg width="395.52" viewBox="3.0299999999999994 -37.55 181.92 37.55" height="81.67424274973148" data-palette-color="#763d00"><g class="wordmark-text-0" data-fill-palette-color="primary" id="text-0"><path d="M38.04-31.81L38.04 0 31.69 0 31.69-8.59 9.38-8.59 9.38 0 3.03 0 3.03-17.5Q3.03-21.34 4.35-24.56 5.66-27.78 8.01-30.1 10.35-32.42 13.55-33.72 16.75-35.01 20.53-35.01L20.53-35.01 34.84-35.01Q35.5-35.01 36.08-34.77 36.67-34.52 37.11-34.08 37.55-33.64 37.79-33.06 38.04-32.47 38.04-31.81L38.04-31.81ZM9.38-17.5L9.38-14.94 31.69-14.94 31.69-28.66 20.53-28.66Q20.24-28.66 19.3-28.58 18.36-28.49 17.13-28.15 15.89-27.81 14.53-27.1 13.16-26.39 12.01-25.15 10.86-23.9 10.12-22.03 9.38-20.17 9.38-17.5L9.38-17.5ZM70.21-8.91L70.21-8.91Q70.21-7.28 69.8-5.97 69.38-4.66 68.7-3.67 68.02-2.69 67.11-1.99 66.21-1.29 65.22-0.85 64.23-0.42 63.22-0.21 62.2 0 61.3 0L61.3 0 44.11 0 44.11-6.35 61.25-6.35Q62.55-6.35 63.21-7.01 63.86-7.67 63.86-8.91L63.86-8.91Q63.74-11.45 61.3-11.45L61.3-11.45 51.46-11.45Q49.36-11.45 47.9-12.18 46.43-12.92 45.52-14.01 44.6-15.11 44.2-16.38 43.8-17.65 43.8-18.75L43.8-18.75Q43.8-20.87 44.55-22.33 45.31-23.78 46.46-24.68 47.6-25.59 48.95-25.99 50.29-26.39 51.46-26.39L51.46-26.39 67.06-26.39 67.06-20.04 51.51-20.04Q51.02-20.04 50.74-19.93 50.46-19.82 50.33-19.64 50.19-19.46 50.17-19.25 50.14-19.04 50.14-18.85L50.14-18.85Q50.17-18.46 50.29-18.24 50.41-18.02 50.6-17.92 50.78-17.82 51.01-17.81 51.24-17.8 51.46-17.8L51.46-17.8 61.3-17.8Q63.74-17.8 65.45-16.92 67.16-16.04 68.21-14.71 69.26-13.38 69.74-11.82 70.21-10.25 70.21-8.91ZM81.1-37.55L81.1-31.81 74.75-31.81 74.75-37.55 81.1-37.55ZM81.1-26.39L81.1 0 74.75 0 74.75-26.39 81.1-26.39ZM110.27-26.39L110.27-20.04 95.99-20.04Q94.69-20.04 94.04-19.4 93.38-18.75 93.38-17.5L93.38-17.5 93.38 0 87.03 0 87.03-17.5Q87.03-19.14 87.44-20.43 87.86-21.73 88.55-22.72 89.25-23.71 90.15-24.4 91.06-25.1 92.05-25.54 93.03-25.98 94.05-26.18 95.06-26.39 95.94-26.39L95.94-26.39 110.27-26.39ZM142.84-17.65L142.84-17.65Q142.84-16.33 142.37-14.81 141.91-13.28 140.87-11.98 139.83-10.67 138.16-9.79 136.49-8.91 134.1-8.91L134.1-8.91 122.65-8.91 122.65-14.94 134.1-14.94Q135.39-14.94 136.1-15.73 136.81-16.53 136.81-17.7L136.81-17.7Q136.81-18.95 136.01-19.65 135.22-20.36 134.1-20.36L134.1-20.36 122.65-20.36Q121.35-20.36 120.64-19.57 119.94-18.77 119.94-17.6L119.94-17.6 119.94-8.74Q119.94-7.47 120.73-6.76 121.52-6.05 122.7-6.05L122.7-6.05 134.1-6.05 134.1 0 122.65 0Q121.33 0 119.8-0.46 118.28-0.93 116.97-1.97 115.66-3 114.78-4.68 113.91-6.35 113.91-8.74L113.91-8.74 113.91-17.65Q113.91-18.97 114.37-20.5 114.83-22.02 115.87-23.33 116.91-24.63 118.58-25.51 120.25-26.39 122.65-26.39L122.65-26.39 134.1-26.39Q135.41-26.39 136.94-25.93 138.47-25.46 139.77-24.43 141.08-23.39 141.96-21.72 142.84-20.04 142.84-17.65ZM170.67-17.5L170.67 0 164.32 0 164.32-17.5Q164.32-18.75 163.66-19.4 163-20.04 161.71-20.04L161.71-20.04 153.45-20.04 153.45 0 147.11 0 147.11-23.24Q147.11-23.9 147.35-24.48 147.59-25.05 148.03-25.48 148.47-25.9 149.06-26.15 149.65-26.39 150.3-26.39L150.3-26.39 161.76-26.39Q163.07-26.39 164.59-25.93 166.1-25.46 167.47-24.44L167.47-24.44 167.47-26.39 176.06-26.39Q176.97-26.39 177.97-26.18 178.97-25.98 179.96-25.54 180.94-25.1 181.85-24.4 182.75-23.71 183.43-22.72 184.12-21.73 184.53-20.43 184.95-19.14 184.95-17.5L184.95-17.5 184.95 0 178.6 0 178.6-17.5Q178.6-18.75 177.98-19.4 177.36-20.04 176.06-20.04L176.06-20.04 170.35-20.04Q170.67-18.87 170.67-17.5L170.67-17.5Z" fill="#763d00" data-fill-palette-color="primary"></path></g></svg></g></svg></g><g transform="matrix(1,0,0,1,163.310208,100.95557128111709)"><svg viewBox="0 0 232.209792 28.09966459157573" height="28.09966459157573" width="232.209792"><g transform="matrix(1,0,0,1,0,0)"><svg width="232.209792" viewBox="2.9 -34.75 297.065714285697 35.95" height="28.09966459157573" data-palette-color="#763d00"><path d="M18.75 0.05L12.15 0 4.5-0.05Q3.65-0.05 3.4-1.15L3.4-1.15Q3.15-1.85 3.15-3.15L3.15-3.15Q3.15-7.5 3.05-10.9L3.05-10.9Q2.9-15.8 2.9-21.25L2.9-21.25 2.9-32.25Q2.9-32.7 3.33-33.13 3.75-33.55 4.2-33.55L4.2-33.55 10-33.5Q11.65-33.45 14.15-33.45L14.15-33.45Q17.9-33.45 20-33.5L20-33.5 21.85-33.55Q24.95-33.65 26.75-33.65L26.75-33.65Q29.85-33.65 32.75-32.45L32.75-32.45Q36.15-31.15 38.2-28L38.2-28Q40.65-24.2 40.65-18.65L40.65-18.65Q40.65-13.4 39.48-9.9 38.3-6.4 35.75-4.15L35.75-4.15Q33.2-1.95 29.08-0.95 24.95 0.05 18.75 0.05L18.75 0.05ZM19.15-6.65Q19.35-6.6 19.7-6.6L19.7-6.6Q20.1-6.6 20.8-6.7L20.8-6.7Q21.05-6.75 21.18-6.83 21.3-6.9 21.4-6.95L21.4-6.95Q22-7.65 22.55-9.9L22.55-9.9Q22.9-11.3 23.4-14.7L23.4-14.7Q23.65-17.6 23.65-19.7L23.65-19.7 23.65-20.65Q23.65-21.95 23.4-24.55L23.4-24.55Q23.05-27.15 22.4-28.2L22.4-28.2Q21.85-28.9 21.4-28.9L21.4-28.9Q20.95-28.9 20.6-28.8 20.25-28.7 20.15-28.65L20.15-28.65Q20.05-28.6 19.7-28.4L19.7-28.4 19.65-22.4Q19.65-21.6 19.55-20L19.55-20 19.5-18.8Q19.4-16.3 19.4-15.2L19.4-15.2 19.15-6.65ZM49.9 0Q49.65 0 49.15-0.08 48.65-0.15 47.95-0.2L47.95-0.2 46.9-0.45Q46.65-0.5 46.52-0.58 46.4-0.65 46.45-0.7L46.45-0.7Q46.45-2 46.3-4.15L46.3-4.15Q46.3-4.9 46.25-5.48 46.2-6.05 46.15-6.45L46.15-6.45 46.05-8.6Q46.05-9.45 45.95-10.75L45.95-10.75 45.9-12.3Q45.9-14.2 45.85-15.25L45.85-15.25Q45.8-16.3 45.8-19.65L45.8-19.65Q45.8-22.8 45.85-26.15 45.9-29.5 46.15-32.5L46.15-32.5Q46.15-33.05 47.35-33.4L47.35-33.4Q48.1-33.5 49.85-33.5L49.85-33.5Q53.9-33.5 55.8-33.65L55.8-33.65Q61.7-33.75 64.7-33.75L64.7-33.75 66.9-33.75Q71-33.65 73.2-33.45L73.2-33.45Q74-33.45 74.35-31.55L74.35-31.55Q74.5-31.2 74.7-29.75L74.7-29.75Q74.85-29 75.1-27.9L75.1-27.9Q75.15-27.6 75.12-27.33 75.1-27.05 75.1-27L75.1-27Q75.05-26.5 74.55-26.5L74.55-26.5Q74.35-26.55 73.95-26.55L73.95-26.55Q71.85-26.55 68.8-26.2L68.8-26.2 66.15-26Q64.5-25.8 63.55-25.75L63.55-25.75Q63.4-25.75 63.15-25.15L63.15-25.15Q62.95-24.5 62.7-22.15L62.7-22.15 62.6-20.9Q62.6-20.25 62.75-20.08 62.9-19.9 63.4-19.9L63.4-19.9 67.85-19.9Q69.8-19.9 72.3-19.65L72.3-19.65 72.9-19.65Q73.55-19.5 73.7-19.15L73.7-19.15Q73.9-18.85 73.95-18.5L73.95-18.5 74.15-14.05 74.15-13.9Q74.15-13.05 72.35-12.9L72.35-12.9Q71.3-12.65 68.35-12.65L68.35-12.65Q65.8-12.65 65.05-12.7L65.05-12.7Q63.6-12.7 63.3-12.65L63.3-12.65Q62.75-12.5 62.6-12.08 62.45-11.65 62.45-10.65L62.45-10.65Q62.45-10 62.35-8.8L62.35-8.8Q62.3-8.2 62.3-6.9L62.3-6.9Q65.55-6.9 67.1-7L67.1-7Q68.8-7.15 71.9-7.15L71.9-7.15Q72.1-7.15 72.3-6.8L72.3-6.8Q72.55-6.3 73.1-4.55L73.1-4.55Q73.4-3.55 73.7-2.05L73.7-2.05Q73.8-1.7 73.8-1.3L73.8-1.3Q73.8-0.25 72.8-0.25L72.8-0.25Q71.5-0.25 69.3-0.15L69.3-0.15Q68.15-0.05 65.7-0.05L65.7-0.05Q60.45-0.05 57.8 0L57.8 0 49.9 0ZM90.8 0Q90.2 0 89.45-0.15L89.45-0.15Q88.7-0.3 88.1-0.3L88.1-0.3Q87.95-0.3 87.95-0.25L87.95-0.25 87.7-0.25Q87.2-0.55 87.2-0.8L87.2-0.8 83.7-16.65Q82.25-21.85 80.75-29L80.75-29Q80.7-29.15 80.67-29.5 80.65-29.85 80.55-30.15L80.55-30.15Q80.3-31.15 80.3-31.95L80.3-31.95Q80.3-32.55 80.45-33L80.45-33Q80.55-33.65 81.2-33.65L81.2-33.65 81.8-33.65 82.95-33.65Q83.35-33.55 84.25-33.55L84.25-33.55 86.5-33.5 86.95-33.5 91.55-33.5Q91.6-33.45 91.75-33.4 91.9-33.35 92.05-33.3L92.05-33.3Q92.15-33.3 92.22-33.35 92.3-33.4 92.35-33.4L92.35-33.4Q92.55-33.5 92.75-33.5L92.75-33.5 92.95-33.5 93.45-33.45Q94.1-33.4 96.2-33.4L96.2-33.4Q96.75-33.3 97.7-33.3L97.7-33.3Q98-32.7 98.7-29.65L98.7-29.65 99.25-26.8Q99.45-25.75 99.95-23.65L99.95-23.65Q99.95-23.6 99.97-23.4 100-23.2 100.05-22.9L100.05-22.9Q100.15-22.5 100.22-22.03 100.3-21.55 100.45-21L100.45-21Q100.5-20.65 100.85-18.65L100.85-18.65 101.7-14.5 101.85-13.75 101.85-13.55Q101.95-13.5 101.95-13.3L101.95-13.3 102-13 102.05-13.3Q102.05-13.6 102.2-13.75L102.2-13.75Q102.2-13.8 102.22-13.98 102.25-14.15 102.3-14.5L102.3-14.5Q102.7-16.5 103.1-18.65L103.1-18.65 103.6-21Q103.7-21.6 103.8-22.05 103.9-22.5 103.95-22.9L103.95-22.9 104.1-23.65Q104.35-24.7 104.75-26.8L104.75-26.8 105.3-29.4Q105.4-29.95 105.8-31.9L105.8-31.9Q106.05-32.7 106.35-33.3L106.35-33.3Q107.05-33.3 107.45-33.35L107.45-33.35 108.7-33.4 109.7-33.45 110.1-33.5 110.25-33.5Q110.35-33.5 110.35-33.4L110.35-33.4Q110.4-33.4 110.42-33.35 110.45-33.3 110.45-33.3L110.45-33.3Q110.65-33.3 110.77-33.35 110.9-33.4 110.95-33.4L110.95-33.4 110.95-33.5 114.1-33.5 114.5-33.5Q115.1-33.5 115.5-33.55L115.5-33.55 116.75-33.55Q117.7-33.55 118.05-33.65L118.05-33.65 119.2-33.65 119.85-33.65Q120.75-33.65 120.75-32.25L120.75-32.25 120.7-31.65Q120.7-31.15 120.5-30.15L120.5-30.15Q120.35-29.65 120.32-29.38 120.3-29.1 120.25-29L120.25-29Q118.95-22.4 117.35-16.65L117.35-16.65 113.85-0.8Q113.85-0.65 113.35-0.25L113.35-0.25 113.2-0.25 112.95-0.3Q112.6-0.3 112.3-0.15L112.3-0.15Q112 0 111.7 0L111.7 0Q111.05 0 110.35-0.15L110.35-0.15Q109.55-0.25 109-0.25L109-0.25Q102.8 0 90.8 0L90.8 0ZM149.54 0.3Q146.39 0.3 144.84 0.2L144.84 0.2Q142.44 0.1 140.64-0.4L140.64-0.4Q140.44-0.4 140.24-1L140.24-1Q140.09-1.45 140.09-1.7L140.09-1.7 139.14-19.9 139.14-20.9Q139.14-21.25 139.19-22.15 139.24-23.05 139.24-24.55L139.24-24.55 139.34-27.15Q139.34-28.15 139.39-28.65L139.39-28.65Q139.39-30.15 139.49-31.55L139.49-31.55Q139.49-32 139.52-32.18 139.54-32.35 139.54-32.4L139.54-32.4Q139.64-32.45 139.92-32.68 140.19-32.9 140.39-33.05L140.39-33.05Q140.89-33.5 141.84-33.5L141.84-33.5 144.74-33.5 145.54-33.5Q146.04-33.45 147.39-33.45L147.39-33.45Q148.84-33.45 149.74-33.4L149.74-33.4 152.04-33.4 153.89-33.4 154.64-33.4Q155.94-33.4 156.39-33L156.39-33Q156.99-32.55 156.99-31.25L156.99-31.25 156.99-30.75Q156.99-30.55 156.94-30.35 156.89-30.15 156.89-29.95L156.89-29.95 156.79-29.15 156.74-28.55Q156.74-28.35 156.84-28.15L156.84-28.15Q156.89-27.95 156.89-27.65L156.89-27.65Q156.89-26.3 156.84-25.7L156.84-25.7 156.79-23.65 158.09-23.65Q158.74-23.5 159.49-23.5L159.49-23.5Q160.49-23.4 160.89-23.4L160.89-23.4Q161.34-23.3 162.24-23.3L162.24-23.3 162.29-26.7Q162.34-27.15 162.34-28L162.34-28 162.39-30.05 162.39-30.45Q162.39-31.25 162.44-31.88 162.49-32.5 162.64-32.75L162.64-32.75Q162.94-33.15 163.34-33.15L163.34-33.15Q163.64-33.25 164.74-33.25L164.74-33.25 166.09-33.3Q167.54-33.3 168.49-33.4L168.49-33.4 171.34-33.4Q173.34-33.4 174.24-33.45L174.24-33.45Q175.99-33.45 176.64-33.5L176.64-33.5 177.99-33.5Q179.19-33.5 179.59-33.2L179.59-33.2Q179.89-33 179.99-32.63 180.09-32.25 180.09-31.55L180.09-31.55Q180.09-29.6 179.99-26.3L179.99-26.3Q179.79-23.1 179.79-21.15L179.79-21.15Q179.79-20.85 179.89-20.65L179.89-20.65Q179.89-20.45 179.94-20.33 179.99-20.2 179.99-20.15L179.99-20.15 178.74-1.15Q178.74-0.9 178.39-0.45L178.39-0.45Q177.94 0 177.59 0L177.59 0 163.84 0Q163.69 0 163.54-0.25 163.39-0.5 163.29-0.9L163.29-0.9Q163.24-1.15 163.17-1.58 163.09-2 163.04-2.65L163.04-2.65 162.49-11.9 162.14-11.9Q160.79-11.9 159.99-11.95L159.99-11.95Q158.09-12.05 157.64-12.05L157.64-12.05 157.24-12.05Q156.79-12.05 156.79-11.2L156.79-11.2Q156.79-5 156.74-3.3L156.74-3.3Q156.74-2.9 156.59-1.4L156.59-1.4Q156.49-0.25 155.74 0L155.74 0 154.99 0.05Q151.09 0.25 149.54 0.3L149.54 0.3ZM204.74 1.2Q198.79 1.2 195.34 0.25L195.34 0.25Q190.54-1 188.04-4.4L188.04-4.4Q185.14-8.45 185.14-15.65L185.14-15.65Q185.14-20.8 186.29-24.4 187.44-28 189.84-30.3L189.84-30.3Q192.24-32.6 196.01-33.68 199.79-34.75 205.24-34.75L205.24-34.75Q209.49-34.75 213.24-33.45L213.24-33.45Q217.84-31.8 220.39-28.4L220.39-28.4Q223.54-24.35 223.54-17.75L223.54-17.75Q223.54-10.05 221.24-5.75L221.24-5.75Q218.94-1.8 214.59-0.15L214.59-0.15Q211.04 1.2 204.74 1.2L204.74 1.2ZM204.34-3.65Q204.94-3.65 205.29-4.4L205.29-4.4Q206.04-6 206.34-9.45L206.34-9.45Q206.64-12.6 206.64-15.4L206.64-15.4 206.64-17.4 206.64-18.65Q206.64-20.85 206.34-24L206.34-24Q206.04-27.4 205.29-29.15L205.29-29.15Q204.89-30 204.34-30L204.34-30Q203.24-30 202.74-27.9L202.74-27.9Q202.24-25 202.24-22.65L202.24-22.65Q202.09-20.65 202.09-16.4L202.09-16.4Q202.09-13.55 202.24-11.7L202.24-11.7Q202.24-9.35 202.74-6.25L202.74-6.25Q203.24-3.65 204.34-3.65L204.34-3.65ZM230.29-0.05Q229.44-0.05 229.19-1.15L229.19-1.15Q228.94-1.7 228.94-3.15L228.94-3.15Q228.94-7.5 228.84-10.9L228.84-10.9Q228.69-15.8 228.69-21.25L228.69-21.25 228.69-32.25Q228.69-32.7 229.11-33.13 229.54-33.55 229.99-33.55L229.99-33.55 235.74-33.5Q237.34-33.45 239.94-33.45L239.94-33.45Q243.69-33.45 245.74-33.5L245.74-33.5 247.59-33.55Q250.59-33.65 252.54-33.65L252.54-33.65Q255.69-33.65 258.54-32.75L258.54-32.75Q261.89-31.75 263.99-29.3L263.99-29.3Q266.34-26.65 266.34-22.15L266.34-22.15Q266.34-14.55 262.49-11.15L262.49-11.15Q259.09-7.95 252.34-7.95L252.34-7.95 245.49-7.95Q245.54-6.8 245.54-5.5L245.54-5.5Q245.54-5.05 245.51-4.42 245.49-3.8 245.49-2.75L245.49-2.75Q245.49-1.1 244.79-0.65L244.79-0.65Q244.24-0.2 242.74-0.2L242.74-0.2Q240.54-0.2 239.69-0.15L239.69-0.15Q236.24-0.15 234.19-0.05L234.19-0.05 230.29-0.05ZM246.79-13.95L248.19-13.95Q249.24-13.95 249.74-15.95L249.74-15.95Q250.14-17.3 250.34-19.95L250.34-19.95Q250.44-21.4 250.44-23.2L250.44-23.2 250.44-23.75Q250.44-24.55 250.19-26.15L250.19-26.15Q249.99-27.05 249.74-27.58 249.49-28.1 249.09-28.45L249.09-28.45Q248.69-28.9 248.19-28.9L248.19-28.9Q247.94-28.9 247.76-28.7 247.59-28.5 247.44-28.2L247.44-28.2Q246.89-27.3 246.44-24.2L246.44-24.2Q246.29-23.3 246.19-21.5L246.19-21.5Q245.94-18.75 245.94-14.15L245.94-14.15Q245.94-14.15 245.99-14.1 246.04-14.05 246.19-14L246.19-14 246.79-13.95ZM274.73 0Q274.48 0 273.98-0.08 273.48-0.15 272.78-0.2L272.78-0.2 271.73-0.45Q271.48-0.5 271.36-0.58 271.23-0.65 271.28-0.7L271.28-0.7Q271.28-2 271.13-4.15L271.13-4.15Q271.13-4.9 271.08-5.48 271.03-6.05 270.98-6.45L270.98-6.45 270.88-8.6Q270.88-9.45 270.78-10.75L270.78-10.75 270.73-12.3Q270.73-14.2 270.68-15.25L270.68-15.25Q270.63-16.3 270.63-19.65L270.63-19.65Q270.63-22.8 270.68-26.15 270.73-29.5 270.98-32.5L270.98-32.5Q270.98-33.05 272.18-33.4L272.18-33.4Q272.93-33.5 274.68-33.5L274.68-33.5Q278.73-33.5 280.63-33.65L280.63-33.65Q286.53-33.75 289.53-33.75L289.53-33.75 291.73-33.75Q295.83-33.65 298.03-33.45L298.03-33.45Q298.83-33.45 299.18-31.55L299.18-31.55Q299.33-31.2 299.53-29.75L299.53-29.75Q299.68-29 299.93-27.9L299.93-27.9Q299.98-27.6 299.96-27.33 299.93-27.05 299.93-27L299.93-27Q299.88-26.5 299.38-26.5L299.38-26.5Q299.18-26.55 298.78-26.55L298.78-26.55Q296.68-26.55 293.63-26.2L293.63-26.2 290.98-26Q289.33-25.8 288.38-25.75L288.38-25.75Q288.23-25.75 287.98-25.15L287.98-25.15Q287.78-24.5 287.53-22.15L287.53-22.15 287.43-20.9Q287.43-20.25 287.58-20.08 287.73-19.9 288.23-19.9L288.23-19.9 292.68-19.9Q294.63-19.9 297.13-19.65L297.13-19.65 297.73-19.65Q298.38-19.5 298.53-19.15L298.53-19.15Q298.73-18.85 298.78-18.5L298.78-18.5 298.98-14.05 298.98-13.9Q298.98-13.05 297.18-12.9L297.18-12.9Q296.13-12.65 293.18-12.65L293.18-12.65Q290.63-12.65 289.88-12.7L289.88-12.7Q288.43-12.7 288.13-12.65L288.13-12.65Q287.58-12.5 287.43-12.08 287.28-11.65 287.28-10.65L287.28-10.65Q287.28-10 287.18-8.8L287.18-8.8Q287.13-8.2 287.13-6.9L287.13-6.9Q290.38-6.9 291.93-7L291.93-7Q293.63-7.15 296.73-7.15L296.73-7.15Q296.93-7.15 297.13-6.8L297.13-6.8Q297.38-6.3 297.93-4.55L297.93-4.55Q298.23-3.55 298.53-2.05L298.53-2.05Q298.63-1.7 298.63-1.3L298.63-1.3Q298.63-0.25 297.63-0.25L297.63-0.25Q296.33-0.25 294.13-0.15L294.13-0.15Q292.98-0.05 290.53-0.05L290.53-0.05Q285.28-0.05 282.63 0L282.63 0 274.73 0Z" opacity="1" transform="matrix(1,0,0,1,0,0)" fill="#763d00" class="slogan-text-1" data-fill-palette-color="secondary" id="text-1"></path></svg></g></svg></g></svg></g></svg></g><g transform="matrix(1,0,0,1,414.8013285313856,0)"><svg viewBox="0 0 175.33195611870005 178.35433597606152" height="178.35433597606152" width="175.33195611870005"><g><svg xmlns="http://www.w3.org/2000/svg" data-name="Layer 3" viewBox="2.9998097921671025 2 58.0001902078329 59" x="0" y="0" height="178.35433597606152" width="175.33195611870005" class="icon-icon-0" data-fill-palette-color="accent" id="icon-0"><path d="M27 35H57V23H27Zm18.29-9.29l1.42-1.42 4 4a1 1 0 0 1 0 1.42l-4 4-1.42-1.42L48.59 29Zm-2.18-1.16l1.78 0.9-4 8-1.78-0.9Zm-9.82 3.74l4-4 1.42 1.42L35.41 29l3.3 3.29-1.42 1.42-4-4A1 1 0 0 1 33.29 28.29Z" fill="#763d00" data-fill-palette-color="accent"></path><path d="M43 57H25a2 2 0 0 0-2 2v2H45V59A2 2 0 0 0 43 57Z" fill="#763d00" data-fill-palette-color="accent"></path><rect x="29" y="49" width="10" height="6" fill="#763d00" data-fill-palette-color="accent"></rect><path d="M7 20a1 1 0 0 0 1 1h2V17.82a3 3 0 1 1 2 0V21h2a1 1 0 0 0 1-1V18.48a1 1 0 0 1 0.44-0.83A8 8 0 0 0 11 3h-0.23A8.07 8.07 0 0 0 3 10.94a8 8 0 0 0 3.56 6.71 1 1 0 0 1 0.44 0.83ZM15.29 8.29l1.42 1.42-2 2-1.42-1.42ZM10 7h2v3H10ZM5.29 9.71L6.71 8.29l2 2L7.29 11.71Z" fill="#763d00" data-fill-palette-color="accent"></path><circle cx="11" cy="15" r="1.0" fill="#763d00" data-fill-palette-color="accent"></circle><path d="M9 26a1 1 0 0 0 1 1h2a1 1 0 0 0 1-1V23H9Z" fill="#763d00" data-fill-palette-color="accent"></path><path d="M7 44a3 3 0 0 0 3 3H58a3 3 0 0 0 3-3V41H7Zm50-1h2v2H57Zm-4 0h2v2H53Z" fill="#763d00" data-fill-palette-color="accent"></path><path d="M27 21H57V15H27Zm26-4h2v2H53Zm-4 0h2v2H49Zm-4 0h2v2H45Z" fill="#763d00" data-fill-palette-color="accent"></path><path d="M58 11H45v2H58a1 1 0 0 1 1 1V36a1 1 0 0 1-1 1H26a1 1 0 0 1-1-1V14a1 1 0 0 1 1-1H39V11H21a10 10 0 0 1-4 8v1a3 3 0 0 1-2 2.82V26a3 3 0 0 1-3 3H10a3 3 0 0 1-3-3V39H61V14A3 3 0 0 0 58 11Z" fill="#763d00" data-fill-palette-color="accent"></path><rect x="41" y="11" width="2" height="2" fill="#763d00" data-fill-palette-color="accent"></rect><circle cx="54" cy="4" r="2.0" fill="#763d00" data-fill-palette-color="accent"></circle><circle cx="30" cy="4" r="2.0" fill="#763d00" data-fill-palette-color="accent"></circle><path d="M45 5h6.18A3 3 0 0 1 51 4a3 3 0 0 1 0.18-1H44a1 1 0 0 0-1 1v7h2Z" fill="#763d00" data-fill-palette-color="accent"></path><path d="M41 4a1 1 0 0 0-1-1H32.82A3 3 0 0 1 33 4a3 3 0 0 1-0.18 1H39v6h2Z" fill="#763d00" data-fill-palette-color="accent"></path></svg></g></svg></g></svg></g><defs></defs></svg><rect width="395.52" height="119.53690598400922" fill="none" stroke="none" visibility="hidden"></rect></g></svg></g></svg>